<svg id="kity_svg_6" xmlns="http://www.w3.org/2000/svg" xmlns:xlink="http://www.w3.org/1999/xlink" version="1.1" width="843" height="661" style="background: rgb(251, 251, 251); visibility: visible;" viewBox="0 0 843 661"><defs id="kity_defs_7"><linearGradient id="kity_linearGradient_17" x1="0" y1="0" x2="0" y2="1"><stop id="kity_stop_18" offset="0" stop-color="rgb(255, 255, 255)"></stop><stop id="kity_stop_19" offset="1" stop-color="rgb(204, 204, 204)"></stop></linearGradient><marker id="kity_marker_2" orient="auto" refX="6" refY="0" viewBox="-7 -7 14 14" markerWidth="7" markerHeight="7" markerUnits="userSpaceOnUse"><path id="kity_path_3" fill="rgb(115, 161, 191)" stroke="none" d="M6,0A6,6,0,1,1,-6,0A6,6,0,1,1,6,0"></path></marker></defs><g id="kity_g_8"><g id="minder1" text-rendering="optimize-speed"><g id="minder_connect_group1"><path id="kity_path_79" fill="none" stroke="rgb(115, 161, 191)" stroke-width="1" d="M125.00000665336847,268.5000060722232A173.5,155,0,0,1,298.5000066533685,113.50000607222319"></path><path id="kity_path_87" fill="none" stroke="rgb(115, 161, 191)" stroke-width="1" d="M125.00000665336847,268.5000060722232A189.5,142,0,0,0,314.5000066533685,410.5000060722232"></path><path id="kity_path_298" fill="none" stroke="rgb(115, 161, 191)" stroke-width="1" d="M441.5000066533685,410.5000060722232C456.5000066533685,410.5000060722232,456.5000066533685,324.5000060722232,471.5000066533685,324.5000060722232L587.5000066533685,324.5000060722232"></path><path id="kity_path_299" fill="none" stroke="rgb(115, 161, 191)" stroke-width="1" d="M441.5000066533685,410.5000060722232C456.5000066533685,410.5000060722232,456.5000066533685,381.5000060722232,471.5000066533685,381.5000060722232L572.5000066533685,381.5000060722232"></path><path id="kity_path_300" fill="none" stroke="rgb(115, 161, 191)" stroke-width="1" d="M672.5000066533685,459.5000060722232C687.5000066533685,459.5000060722232,687.5000066533685,433.5000060722232,702.5000066533685,433.5000060722232L818.5000066533685,433.5000060722232"></path><path id="kity_path_301" fill="none" stroke="rgb(115, 161, 191)" stroke-width="1" d="M672.5000066533685,459.5000060722232C687.5000066533685,459.5000060722232,687.5000066533685,485.5000060722232,702.5000066533685,485.5000060722232L818.5000066533685,485.5000060722232"></path><path id="kity_path_302" fill="none" stroke="rgb(115, 161, 191)" stroke-width="1" d="M586.5000066533685,524.5000060722232C601.5000066533685,524.5000060722232,601.5000066533685,459.5000060722232,616.5000066533685,459.5000060722232L672.5000066533685,459.5000060722232"></path><path id="kity_path_303" fill="none" stroke="rgb(115, 161, 191)" stroke-width="1" d="M695.5000066533685,589.5000060722232C710.5000066533685,589.5000060722232,710.5000066533685,537.5000060722232,725.5000066533685,537.5000060722232L793.5000066533685,537.5000060722232"></path><path id="kity_path_304" fill="none" stroke="rgb(115, 161, 191)" stroke-width="1" d="M695.5000066533685,589.5000060722232C710.5000066533685,589.5000060722232,710.5000066533685,589.5000060722232,725.5000066533685,589.5000060722232L805.5000066533685,589.5000060722232"></path><path id="kity_path_305" fill="none" stroke="rgb(115, 161, 191)" stroke-width="1" d="M695.5000066533685,589.5000060722232C710.5000066533685,589.5000060722232,710.5000066533685,641.5000060722232,725.5000066533685,641.5000060722232L820.5000066533685,641.5000060722232"></path><path id="kity_path_306" fill="none" stroke="rgb(115, 161, 191)" stroke-width="1" d="M586.5000066533685,524.5000060722232C601.5000066533685,524.5000060722232,601.5000066533685,589.5000060722232,616.5000066533685,589.5000060722232L695.5000066533685,589.5000060722232"></path><path id="kity_path_307" fill="none" stroke="rgb(115, 161, 191)" stroke-width="1" d="M441.5000066533685,410.5000060722232C456.5000066533685,410.5000060722232,456.5000066533685,524.5000060722232,471.5000066533685,524.5000060722232L586.5000066533685,524.5000060722232"></path><path id="kity_path_308" fill="none" stroke="rgb(115, 161, 191)" stroke-width="1" d="M454.5000066533685,113.50000607222319C469.5000066533685,113.50000607222319,469.5000066533685,45.50000607222319,484.5000066533685,45.50000607222319L614.5000066533685,45.50000607222319"></path><path id="kity_path_309" fill="none" stroke="rgb(115, 161, 191)" stroke-width="1" d="M454.5000066533685,113.50000607222319C469.5000066533685,113.50000607222319,469.5000066533685,97.50000607222319,484.5000066533685,97.50000607222319L646.5000066533685,97.50000607222319"></path><path id="kity_path_310" fill="none" stroke="rgb(115, 161, 191)" stroke-width="1" d="M647.5000066533685,209.5000060722232C662.5000066533685,209.5000060722232,662.5000066533685,155.5000060722232,677.5000066533685,155.5000060722232L790.5000066533685,155.5000060722232"></path><path id="kity_path_311" fill="none" stroke="rgb(115, 161, 191)" stroke-width="1" d="M647.5000066533685,209.5000060722232C662.5000066533685,209.5000060722232,662.5000066533685,212.5000060722232,677.5000066533685,212.5000060722232L789.5000066533685,212.5000060722232"></path><path id="kity_path_312" fill="none" stroke="rgb(115, 161, 191)" stroke-width="1" d="M647.5000066533685,209.5000060722232C662.5000066533685,209.5000060722232,662.5000066533685,269.5000060722232,677.5000066533685,269.5000060722232L823.5000066533685,269.5000060722232"></path><path id="kity_path_313" fill="none" stroke="rgb(115, 161, 191)" stroke-width="1" d="M454.5000066533685,113.50000607222319C469.5000066533685,113.50000607222319,469.5000066533685,209.5000060722232,484.5000066533685,209.5000060722232L647.5000066533685,209.5000060722232"></path></g><g id="minder_node1"><path id="node_outline1" fill="rgb(115, 161, 191)" stroke="rgb(115, 161, 191)" d="M25.500006653368473,248.5000060722232h199a5,5,0,0,1,5,5v30a5,5,0,0,1,-5,5h-199a5,5,0,0,1,-5,-5v-30a5,5,0,0,1,5,-5z" stroke-width="3"></path><g id="node_text1" fill="white"><text id="kity_text_22" text-rendering="inherit" font-size="16" dy=".8em" y="258.1000060364604" x="44.50000665336847">强化学习中的马尔可夫</text></g></g><g id="kity_g_12" display="none"><path id="kity_path_13" fill="none" stroke="none" d="M44.50000665336847,268.5000060722232h0v0h0z"></path></g><g id="kity_g_14" display="none"><path id="kity_path_15" fill="rgba(0, 92, 153, 0.5)" stroke="none" d="M318.5000066533685,319.5000060722232h97v20h-97z"></path><path id="kity_path_16" fill="none" stroke="rgb(0, 76, 128)" d="M318.5000066533685,319.5000060722232L415.5000066533685,319.5000060722232" stroke-width="1"></path></g><g id="minder_node8" opacity="1"><g id="node_expander7" style="cursor: pointer;"><path id="kity_path_84" fill="white" stroke="gray" d="M299.5000103637576,113.5000037625432A6,6,0,1,1,287.5000103637576,113.5000037625432A6,6,0,1,1,299.5000103637576,113.5000037625432"></path><path id="kity_path_85" fill="none" stroke="gray" d="M289.0000103637576,113.5000037625432L298.0000103637576,113.5000037625432"></path></g><path id="node_outline8" fill="rgb(238, 243, 246)" stroke="rgb(115, 161, 191)" d="M303.50001076608896,100.5000037625432h148a3,3,0,0,1,3,3v20a3,3,0,0,1,-3,3h-148a3,3,0,0,1,-3,-3v-20a3,3,0,0,1,3,-3z" stroke-width="1"></path><g id="node_text8" fill="black"><text id="kity_text_81" text-rendering="inherit" font-size="14" dy=".8em" y="104.40000373125076" x="320.50001076608896">如果评估一个策略</text></g></g><g id="minder_node9" opacity="1"><g id="node_expander8" style="cursor: pointer;"><path id="kity_path_92" fill="white" stroke="gray" d="M454.5000126734376,410.5000081881881A6,6,0,1,1,442.5000126734376,410.5000081881881A6,6,0,1,1,454.5000126734376,410.5000081881881"></path><path id="kity_path_93" fill="none" stroke="gray" d="M444.0000126734376,410.5000081881881L453.0000126734376,410.5000081881881"></path></g><path id="node_outline9" fill="rgb(238, 243, 246)" stroke="rgb(115, 161, 191)" d="M319.50001100450754,397.5000081881881h119a3,3,0,0,1,3,3v20a3,3,0,0,1,-3,3h-119a3,3,0,0,1,-3,-3v-20a3,3,0,0,1,3,-3z" stroke-width="1"></path><g id="node_text9" fill="black"><text id="kity_text_89" text-rendering="inherit" font-size="14" dy=".8em" y="401.40000815689564" x="336.50001100450754">求解最优策略</text></g></g><g id="minder_node17" opacity="1"><g id="node_expander16" style="cursor: pointer;" display="none"><path id="kity_path_167" fill="white" stroke="gray" d="M481.50001307576895,310.50000669807196A6,6,0,1,1,469.50001307576895,310.50000669807196A6,6,0,1,1,481.50001307576895,310.50000669807196"></path><path id="kity_path_168" fill="none" stroke="gray"></path></g><path id="node_outline17" fill="none" stroke="none" d="M486.5000133141875,299.50000669807196h96a5,5,0,0,1,5,5v12a5,5,0,0,1,-5,5h-96a5,5,0,0,1,-5,-5v-12a5,5,0,0,1,5,-5z" stroke-width="3"></path><g id="node_text17" fill="black"><text id="kity_text_164" text-rendering="inherit" font-size="12" dy=".8em" y="302.70000667124987" x="491.5000133141875">最优行为值函数</text></g></g><g id="minder_node18" opacity="1"><g id="node_expander17" style="cursor: pointer;" display="none"><path id="kity_path_177" fill="white" stroke="gray" d="M481.50001307576895,365.00000751018524A6,6,0,1,1,469.50001307576895,365.00000751018524A6,6,0,1,1,481.50001307576895,365.00000751018524"></path><path id="kity_path_178" fill="none" stroke="gray"></path></g><path id="node_outline18" fill="none" stroke="none" d="M486.5000133141875,351.50000750273466h81a5,5,0,0,1,5,5v17a5,5,0,0,1,-5,5h-81a5,5,0,0,1,-5,-5v-17a5,5,0,0,1,5,-5z" stroke-width="3"></path><g id="node_text18" fill="black"><text id="kity_text_174" text-rendering="inherit" font-size="12" dy=".8em" y="356.70000747591257" x="491.5000133141875">最优策略</text></g><g id="kity_g_179" style="cursor: pointer;"><path id="kity_path_180" fill="none" stroke="none" d="M549.0000141337514,356.00000750273466h12a2,2,0,0,1,2,2v13a2,2,0,0,1,-2,2h-12a2,2,0,0,1,-2,-2v-13a2,2,0,0,1,2,-2z"></path><path id="kity_path_181" fill="black" stroke="none" d="M558.0000141710043,367.0000074058771H552.0000141710043V366.0000074058771h6L558.0000141710043,367.0000074058771L558.0000141710043,367.0000074058771zM558.0000141710043,365.0000074058771H552.0000141710043V364.0000074058771h6V365.0000074058771zM558.0000141710043,363.0000074058771H552.0000141710043V362.0000074058771h6V363.0000074058771zM557.5000141710043,369.0000074058771H551.0000141710043V360.0000074058771h8v7.5M558.0000141710043,370.0000074058771l2,-2V359.0000074058771H550.0000141710043v11"></path></g></g><g id="minder_node20"><g id="node_expander19" style="cursor: pointer;" display="none"><path id="kity_path_196" fill="white" stroke="gray" d="M712.5000165179372,419.5000083222985A6,6,0,1,1,700.5000165179372,419.5000083222985A6,6,0,1,1,712.5000165179372,419.5000083222985"></path><path id="kity_path_197" fill="none" stroke="gray"></path></g><path id="node_outline20" fill="none" stroke="none" d="M717.5000167563558,408.5000083222985h96a5,5,0,0,1,5,5v12a5,5,0,0,1,-5,5h-96a5,5,0,0,1,-5,-5v-12a5,5,0,0,1,5,-5z" stroke-width="3"></path><g id="node_text20" fill="black"><text id="kity_text_193" text-rendering="inherit" font-size="12" dy=".8em" y="411.70000829547644" x="722.5000167563558">最优状态值函数</text></g></g><g id="minder_node24"><g id="node_expander23" style="cursor: pointer;" display="none"><path id="kity_path_228" fill="white" stroke="gray" d="M712.5000165179372,471.5000090971589A6,6,0,1,1,700.5000165179372,471.5000090971589A6,6,0,1,1,712.5000165179372,471.5000090971589"></path><path id="kity_path_229" fill="none" stroke="gray"></path></g><path id="node_outline24" fill="none" stroke="none" d="M717.5000167563558,460.5000090971589h96a5,5,0,0,1,5,5v12a5,5,0,0,1,-5,5h-96a5,5,0,0,1,-5,-5v-12a5,5,0,0,1,5,-5z" stroke-width="3"></path><g id="node_text24" fill="black"><text id="kity_text_225" text-rendering="inherit" font-size="12" dy=".8em" y="463.7000090703368" x="722.5000167563558">最优行为值函数</text></g></g><g id="minder_node22"><g id="node_expander21" style="cursor: pointer;"><path id="kity_path_212" fill="white" stroke="gray" d="M626.5000152364373,445.5000087097287A6,6,0,1,1,614.5000152364373,445.5000087097287A6,6,0,1,1,626.5000152364373,445.5000087097287"></path><path id="kity_path_213" fill="none" stroke="gray" d="M616.0000152364373,445.5000087097287L625.0000152364373,445.5000087097287"></path></g><path id="node_outline22" fill="none" stroke="none" d="M631.5000154748559,434.5000087097287h36a5,5,0,0,1,5,5v12a5,5,0,0,1,-5,5h-36a5,5,0,0,1,-5,-5v-12a5,5,0,0,1,5,-5z" stroke-width="3"></path><g id="node_text22" fill="black"><text id="kity_text_209" text-rendering="inherit" font-size="12" dy=".8em" y="437.7000086829066" x="636.5000154748559">定义</text></g></g><g id="minder_node26"><g id="node_expander25" style="cursor: pointer;" display="none"><path id="kity_path_244" fill="white" stroke="gray" d="M735.5000168606639,523.5000098720193A6,6,0,1,1,723.5000168606639,523.5000098720193A6,6,0,1,1,735.5000168606639,523.5000098720193"></path><path id="kity_path_245" fill="none" stroke="gray"></path></g><path id="node_outline26" fill="none" stroke="none" d="M740.5000170990825,512.5000098720193h48a5,5,0,0,1,5,5v12a5,5,0,0,1,-5,5h-48a5,5,0,0,1,-5,-5v-12a5,5,0,0,1,5,-5z" stroke-width="3"></path><g id="node_text26" fill="black"><text id="kity_text_241" text-rendering="inherit" font-size="12" dy=".8em" y="515.7000098451972" x="745.5000170990825">值迭代</text></g></g><g id="minder_node27"><g id="node_expander26" style="cursor: pointer;" display="none"><path id="kity_path_252" fill="white" stroke="gray" d="M735.5000168606639,575.5000106468797A6,6,0,1,1,723.5000168606639,575.5000106468797A6,6,0,1,1,735.5000168606639,575.5000106468797"></path><path id="kity_path_253" fill="none" stroke="gray"></path></g><path id="node_outline27" fill="none" stroke="none" d="M740.5000170990825,564.5000106468797h60a5,5,0,0,1,5,5v12a5,5,0,0,1,-5,5h-60a5,5,0,0,1,-5,-5v-12a5,5,0,0,1,5,-5z" stroke-width="3"></path><g id="node_text27" fill="black"><text id="kity_text_249" text-rendering="inherit" font-size="12" dy=".8em" y="567.7000106200576" x="745.5000170990825">策略迭代</text></g></g><g id="minder_node28"><g id="node_expander27" style="cursor: pointer;" display="none"><path id="kity_path_260" fill="white" stroke="gray" d="M735.5000168606639,627.50001142174A6,6,0,1,1,723.5000168606639,627.50001142174A6,6,0,1,1,735.5000168606639,627.50001142174"></path><path id="kity_path_261" fill="none" stroke="gray"></path></g><path id="node_outline28" fill="none" stroke="none" d="M740.5000170990825,616.50001142174h75a5,5,0,0,1,5,5v12a5,5,0,0,1,-5,5h-75a5,5,0,0,1,-5,-5v-12a5,5,0,0,1,5,-5z" stroke-width="3"></path><g id="node_text28" fill="black"><text id="kity_text_257" text-rendering="inherit" font-size="12" dy=".8em" y="619.700011394918" x="745.5000170990825">Q-Learning</text></g></g><g id="minder_node23"><g id="node_expander22" style="cursor: pointer;"><path id="kity_path_220" fill="white" stroke="gray" d="M626.5000152364373,575.5000106468797A6,6,0,1,1,614.5000152364373,575.5000106468797A6,6,0,1,1,626.5000152364373,575.5000106468797"></path><path id="kity_path_221" fill="none" stroke="gray" d="M616.0000152364373,575.5000106468797L625.0000152364373,575.5000106468797"></path></g><path id="node_outline23" fill="none" stroke="none" d="M631.5000154748559,564.5000106468797h59a5,5,0,0,1,5,5v12a5,5,0,0,1,-5,5h-59a5,5,0,0,1,-5,-5v-12a5,5,0,0,1,5,-5z" stroke-width="3"></path><g id="node_text23" fill="black"><text id="kity_text_217" text-rendering="inherit" font-size="12" dy=".8em" y="567.7000106200576" x="636.5000154748559">求解方式 </text></g></g><g id="minder_node19"><g id="node_expander18" style="cursor: pointer;"><path id="kity_path_188" fill="white" stroke="gray" d="M481.50001307576895,510.5000096783042A6,6,0,1,1,469.50001307576895,510.5000096783042A6,6,0,1,1,481.50001307576895,510.5000096783042"></path><path id="kity_path_189" fill="none" stroke="gray" d="M471.00001307576895,510.5000096783042L480.00001307576895,510.5000096783042"></path></g><path id="node_outline19" fill="none" stroke="none" d="M486.5000133141875,499.5000096783042h95a5,5,0,0,1,5,5v12a5,5,0,0,1,-5,5h-95a5,5,0,0,1,-5,-5v-12a5,5,0,0,1,5,-5z" stroke-width="3"></path><g id="node_text19" fill="black"><text id="kity_text_185" text-rendering="inherit" font-size="12" dy=".8em" y="502.7000096514821" x="491.5000133141875">贝尔曼最优方程</text></g></g><g id="minder_node10" opacity="1"><g id="node_expander9" style="cursor: pointer;" display="none"><path id="kity_path_100" fill="white" stroke="gray" d="M494.50001326948404,31.500002540647984A6,6,0,1,1,482.50001326948404,31.500002540647984A6,6,0,1,1,494.50001326948404,31.500002540647984"></path><path id="kity_path_101" fill="none" stroke="gray"></path></g><path id="node_outline10" fill="none" stroke="none" d="M499.5000135079026,20.500002540647984h110a5,5,0,0,1,5,5v12a5,5,0,0,1,-5,5h-110a5,5,0,0,1,-5,-5v-12a5,5,0,0,1,5,-5z" stroke-width="3"></path><g id="node_text10" fill="black"><text id="kity_text_97" text-rendering="inherit" font-size="12" dy=".8em" y="23.700002513825893" x="504.5000135079026">马尔可夫过程(MP)</text></g></g><g id="minder_node11" opacity="1"><g id="node_expander10" style="cursor: pointer;" display="none"><path id="kity_path_108" fill="white" stroke="gray" d="M494.50001326948404,83.50000331550837A6,6,0,1,1,482.50001326948404,83.50000331550837A6,6,0,1,1,494.50001326948404,83.50000331550837"></path><path id="kity_path_109" fill="none" stroke="gray"></path></g><path id="node_outline11" fill="none" stroke="none" d="M499.5000135079026,72.50000331550837h142a5,5,0,0,1,5,5v12a5,5,0,0,1,-5,5h-142a5,5,0,0,1,-5,-5v-12a5,5,0,0,1,5,-5z" stroke-width="3"></path><g id="node_text11" fill="black"><text id="kity_text_105" text-rendering="inherit" font-size="12" dy=".8em" y="75.70000328868628" x="504.5000135079026">马尔可夫奖励过程(MRP)</text></g></g><g id="minder_node13" opacity="1"><g id="node_expander12" style="cursor: pointer;" display="none"><path id="kity_path_124" fill="white" stroke="gray" d="M687.5000161454082,139.0000041425228A6,6,0,1,1,675.5000161454082,139.0000041425228A6,6,0,1,1,687.5000161454082,139.0000041425228"></path><path id="kity_path_125" fill="none" stroke="gray"></path></g><path id="node_outline13" fill="none" stroke="none" d="M692.5000163838267,125.50000413507223h93a5,5,0,0,1,5,5v17a5,5,0,0,1,-5,5h-93a5,5,0,0,1,-5,-5v-17a5,5,0,0,1,5,-5z" stroke-width="3"></path><g id="node_text13" fill="black"><text id="kity_text_121" text-rendering="inherit" font-size="12" dy=".8em" y="130.70000410825014" x="697.5000163838267">状态值函数</text></g><g id="kity_g_134" style="cursor: pointer;"><path id="kity_path_135" fill="none" stroke="none" d="M767.0000173822045,130.00000413507223h12a2,2,0,0,1,2,2v13a2,2,0,0,1,-2,2h-12a2,2,0,0,1,-2,-2v-13a2,2,0,0,1,2,-2z"></path><path id="kity_path_136" fill="black" stroke="none" d="M776.0000174194574,141.00000403821468H770.0000174194574V140.00000403821468h6L776.0000174194574,141.00000403821468L776.0000174194574,141.00000403821468zM776.0000174194574,139.00000403821468H770.0000174194574V138.00000403821468h6V139.00000403821468zM776.0000174194574,137.00000403821468H770.0000174194574V136.00000403821468h6V137.00000403821468zM775.5000174194574,143.00000403821468H769.0000174194574V134.00000403821468h8v7.5M776.0000174194574,144.00000403821468l2,-2V133.00000403821468H768.0000174194574v11"></path></g></g><g id="minder_node14" opacity="1"><g id="node_expander13" style="cursor: pointer;" display="none"><path id="kity_path_132" fill="white" stroke="gray" d="M687.5000161454082,196.000004991889A6,6,0,1,1,675.5000161454082,196.000004991889A6,6,0,1,1,687.5000161454082,196.000004991889"></path><path id="kity_path_133" fill="none" stroke="gray"></path></g><path id="node_outline14" fill="none" stroke="none" d="M692.5000163838267,182.50000498443842h92a5,5,0,0,1,5,5v17a5,5,0,0,1,-5,5h-92a5,5,0,0,1,-5,-5v-17a5,5,0,0,1,5,-5z" stroke-width="3"></path><g id="node_text14" fill="black"><text id="kity_text_129" text-rendering="inherit" font-size="12" dy=".8em" y="187.70000495761633" x="697.5000163838267">动作值函数</text></g><g id="kity_g_147" style="cursor: pointer;"><path id="kity_path_148" fill="none" stroke="none" d="M766.0000173673034,187.00000498443842h12a2,2,0,0,1,2,2v13a2,2,0,0,1,-2,2h-12a2,2,0,0,1,-2,-2v-13a2,2,0,0,1,2,-2z"></path><path id="kity_path_149" fill="black" stroke="none" d="M775.0000174045563,198.00000488758087H769.0000174045563V197.00000488758087h6L775.0000174045563,198.00000488758087L775.0000174045563,198.00000488758087zM775.0000174045563,196.00000488758087H769.0000174045563V195.00000488758087h6V196.00000488758087zM775.0000174045563,194.00000488758087H769.0000174045563V193.00000488758087h6V194.00000488758087zM774.5000174045563,200.00000488758087H768.0000174045563V191.00000488758087h8v7.5M775.0000174045563,201.00000488758087l2,-2V190.00000488758087H767.0000174045563v11"></path></g></g><g id="minder_node16"><g id="node_expander15" style="cursor: pointer;" display="none"><path id="kity_path_156" fill="white" stroke="gray" d="M687.5000161454082,253.0000058412552A6,6,0,1,1,675.5000161454082,253.0000058412552A6,6,0,1,1,687.5000161454082,253.0000058412552"></path><path id="kity_path_157" fill="none" stroke="gray"></path></g><path id="node_outline16" fill="none" stroke="none" d="M692.5000163838267,239.5000058338046h126a5,5,0,0,1,5,5v17a5,5,0,0,1,-5,5h-126a5,5,0,0,1,-5,-5v-17a5,5,0,0,1,5,-5z" stroke-width="3"></path><g id="node_text16" fill="black"><text id="kity_text_153" text-rendering="inherit" font-size="12" dy=".8em" y="244.70000580698252" x="697.5000163838267">Bellman方程求解</text></g><g id="kity_g_158" style="cursor: pointer;"><path id="kity_path_159" fill="none" stroke="none" d="M800.0000178739429,244.0000058338046h12a2,2,0,0,1,2,2v13a2,2,0,0,1,-2,2h-12a2,2,0,0,1,-2,-2v-13a2,2,0,0,1,2,-2z"></path><path id="kity_path_160" fill="black" stroke="none" d="M809.0000179111958,255.00000573694706H803.0000179111958V254.00000573694706h6L809.0000179111958,255.00000573694706L809.0000179111958,255.00000573694706zM809.0000179111958,253.00000573694706H803.0000179111958V252.00000573694706h6V253.00000573694706zM809.0000179111958,251.00000573694706H803.0000179111958V250.00000573694706h6V251.00000573694706zM808.5000179111958,257.00000573694706H802.0000179111958V248.00000573694706h8v7.5M809.0000179111958,258.00000573694706l2,-2V247.00000573694706H801.0000179111958v11"></path></g></g><g id="minder_node12" opacity="1"><g id="node_expander11" style="cursor: pointer;"><path id="kity_path_116" fill="white" stroke="gray" d="M494.50001326948404,195.50000498443842A6,6,0,1,1,482.50001326948404,195.50000498443842A6,6,0,1,1,494.50001326948404,195.50000498443842"></path><path id="kity_path_117" fill="none" stroke="gray" d="M484.00001326948404,195.50000498443842L493.00001326948404,195.50000498443842"></path></g><path id="node_outline12" fill="none" stroke="none" d="M499.5000135079026,184.50000498443842h143a5,5,0,0,1,5,5v12a5,5,0,0,1,-5,5h-143a5,5,0,0,1,-5,-5v-12a5,5,0,0,1,5,-5z" stroke-width="3"></path><g id="node_text12" fill="black"><text id="kity_text_113" text-rendering="inherit" font-size="12" dy=".8em" y="187.70000495761633" x="504.5000135079026">马尔可夫决策过程(MDP)</text></g></g></g></g></svg>